<svg width="157" height="36" viewBox="0 0 157 36" fill="none" xmlns="http://www.w3.org/2000/svg">
<path d="M10.64 28.418C8.436 28.418 6.536 28.0633 4.94 27.354C3.36933 26.6193 1.92533 25.5173 0.608 24.048L4.484 20.21C5.34533 21.198 6.29533 21.9707 7.334 22.528C8.398 23.06 9.62667 23.326 11.02 23.326C12.2867 23.326 13.262 23.098 13.946 22.642C14.6553 22.186 15.01 21.5527 15.01 20.742C15.01 20.0073 14.782 19.412 14.326 18.956C13.87 18.5 13.262 18.1073 12.502 17.778C11.7673 17.4487 10.944 17.132 10.032 16.828C9.14533 16.524 8.25867 16.182 7.372 15.802C6.48533 15.3967 5.662 14.9027 4.902 14.32C4.16733 13.712 3.572 12.9647 3.116 12.078C2.66 11.166 2.432 10.026 2.432 8.658C2.432 7.01133 2.82467 5.59267 3.61 4.402C4.42067 3.21133 5.53533 2.312 6.954 1.704C8.37267 1.07067 10.0067 0.754 11.856 0.754C13.7307 0.754 15.4407 1.08333 16.986 1.742C18.5567 2.40067 19.8487 3.3 20.862 4.44L16.986 8.278C16.1753 7.442 15.352 6.82133 14.516 6.416C13.7053 6.01067 12.7807 5.808 11.742 5.808C10.7033 5.808 9.88 6.01067 9.272 6.416C8.664 6.796 8.36 7.35333 8.36 8.088C8.36 8.772 8.588 9.32933 9.044 9.76C9.5 10.1653 10.0953 10.52 10.83 10.824C11.59 11.128 12.4133 11.432 13.3 11.736C14.212 12.04 15.1113 12.3947 15.998 12.8C16.8847 13.2053 17.6953 13.7247 18.43 14.358C19.19 14.966 19.798 15.7513 20.254 16.714C20.71 17.6513 20.938 18.8167 20.938 20.21C20.938 22.7687 20.026 24.7827 18.202 26.252C16.378 27.696 13.8573 28.418 10.64 28.418ZM31.809 28.38C30.1116 28.38 28.5916 27.962 27.249 27.126C25.9316 26.29 24.8803 25.15 24.095 23.706C23.335 22.262 22.955 20.6153 22.955 18.766C22.955 16.9167 23.335 15.27 24.095 13.826C24.8803 12.382 25.9316 11.242 27.249 10.406C28.5916 9.57 30.1116 9.152 31.809 9.152C33.0503 9.152 34.165 9.39267 35.153 9.874C36.1663 10.3553 36.9896 11.0267 37.623 11.888C38.2563 12.724 38.611 13.6867 38.687 14.776V22.756C38.611 23.8453 38.2563 24.8207 37.623 25.682C37.015 26.518 36.2043 27.1767 35.191 27.658C34.1776 28.1393 33.0503 28.38 31.809 28.38ZM32.987 23.136C34.2283 23.136 35.229 22.7307 35.989 21.92C36.749 21.084 37.129 20.0327 37.129 18.766C37.129 17.9047 36.9516 17.1447 36.597 16.486C36.2676 15.8273 35.7863 15.3207 35.153 14.966C34.545 14.586 33.8356 14.396 33.025 14.396C32.2143 14.396 31.4923 14.586 30.859 14.966C30.251 15.3207 29.757 15.8273 29.377 16.486C29.0223 17.1447 28.845 17.9047 28.845 18.766C28.845 19.602 29.0223 20.3493 29.377 21.008C29.7316 21.6667 30.2256 22.186 30.859 22.566C31.4923 22.946 32.2016 23.136 32.987 23.136ZM36.901 28V23.022L37.775 18.538L36.901 14.054V9.532H42.601V28H36.901ZM46.6946 28V0.412H52.5086V28H46.6946ZM65.7228 28.418C63.7214 28.418 61.9354 28.0127 60.3648 27.202C58.8194 26.366 57.6034 25.2133 56.7168 23.744C55.8301 22.2747 55.3868 20.6153 55.3868 18.766C55.3868 16.9167 55.8174 15.27 56.6788 13.826C57.5654 12.3567 58.7561 11.204 60.2508 10.368C61.7454 9.532 63.4301 9.114 65.3048 9.114C67.1288 9.114 68.7374 9.50667 70.1308 10.292C71.5241 11.0773 72.6134 12.1667 73.3988 13.56C74.2094 14.9533 74.6148 16.5493 74.6148 18.348C74.6148 18.6773 74.5894 19.032 74.5388 19.412C74.5134 19.7667 74.4501 20.1847 74.3488 20.666L58.4268 20.704V16.714L71.8788 16.676L69.3708 18.348C69.3454 17.284 69.1808 16.41 68.8768 15.726C68.5728 15.0167 68.1168 14.4847 67.5088 14.13C66.9261 13.75 66.2041 13.56 65.3428 13.56C64.4308 13.56 63.6328 13.7753 62.9488 14.206C62.2901 14.6113 61.7708 15.194 61.3908 15.954C61.0361 16.714 60.8588 17.6387 60.8588 18.728C60.8588 19.8173 61.0488 20.7547 61.4288 21.54C61.8341 22.3 62.3914 22.8953 63.1008 23.326C63.8354 23.7313 64.6968 23.934 65.6848 23.934C66.5968 23.934 67.4201 23.782 68.1548 23.478C68.8894 23.1487 69.5354 22.6673 70.0928 22.034L73.2848 25.226C72.3728 26.29 71.2708 27.088 69.9788 27.62C68.6868 28.152 67.2681 28.418 65.7228 28.418Z" fill="#F67F20"/>
<path d="M84.1471 28.456C83.0578 28.456 81.9811 28.3167 80.9171 28.038C79.8785 27.7593 78.9031 27.3667 77.9911 26.86C77.1045 26.328 76.3445 25.72 75.7111 25.036L79.0171 21.692C79.6251 22.3507 80.3471 22.87 81.1831 23.25C82.0191 23.6047 82.9311 23.782 83.9191 23.782C84.6031 23.782 85.1225 23.6807 85.4771 23.478C85.8571 23.2753 86.0471 22.9967 86.0471 22.642C86.0471 22.186 85.8191 21.844 85.3631 21.616C84.9325 21.3627 84.3751 21.1473 83.6911 20.97C83.0071 20.7673 82.2851 20.552 81.5251 20.324C80.7651 20.096 80.0431 19.7793 79.3591 19.374C78.6751 18.9687 78.1178 18.4113 77.6871 17.702C77.2565 16.9673 77.0411 16.0427 77.0411 14.928C77.0411 13.7373 77.3451 12.7113 77.9531 11.85C78.5611 10.9633 79.4225 10.2667 80.5371 9.76C81.6518 9.25333 82.9565 9 84.4511 9C86.0218 9 87.4658 9.27867 88.7831 9.836C90.1258 10.368 91.2151 11.166 92.0511 12.23L88.7451 15.574C88.1625 14.89 87.5038 14.4087 86.7691 14.13C86.0598 13.8513 85.3631 13.712 84.6791 13.712C84.0205 13.712 83.5265 13.8133 83.1971 14.016C82.8678 14.1933 82.7031 14.4593 82.7031 14.814C82.7031 15.194 82.9185 15.498 83.3491 15.726C83.7798 15.954 84.3371 16.1567 85.0211 16.334C85.7051 16.5113 86.4271 16.7267 87.1871 16.98C87.9471 17.2333 88.6691 17.5753 89.3531 18.006C90.0371 18.4367 90.5945 19.0193 91.0251 19.754C91.4558 20.4633 91.6711 21.4007 91.6711 22.566C91.6711 24.3647 90.9871 25.796 89.6191 26.86C88.2765 27.924 86.4525 28.456 84.1471 28.456ZM105.465 28.38C104.224 28.38 103.084 28.1393 102.045 27.658C101.007 27.1767 100.158 26.518 99.4994 25.682C98.8408 24.8207 98.4608 23.8453 98.3594 22.756V14.966C98.4608 13.8767 98.8408 12.8887 99.4994 12.002C100.158 11.1153 101.007 10.4187 102.045 9.912C103.084 9.40533 104.224 9.152 105.465 9.152C107.213 9.152 108.759 9.57 110.101 10.406C111.469 11.242 112.533 12.382 113.293 13.826C114.079 15.27 114.471 16.9167 114.471 18.766C114.471 20.6153 114.079 22.262 113.293 23.706C112.533 25.15 111.469 26.29 110.101 27.126C108.759 27.962 107.213 28.38 105.465 28.38ZM104.401 23.136C105.237 23.136 105.959 22.946 106.567 22.566C107.201 22.186 107.695 21.6667 108.049 21.008C108.404 20.3493 108.581 19.602 108.581 18.766C108.581 17.9047 108.404 17.1447 108.049 16.486C107.695 15.8273 107.201 15.3207 106.567 14.966C105.959 14.586 105.25 14.396 104.439 14.396C103.629 14.396 102.907 14.586 102.273 14.966C101.665 15.3207 101.184 15.8273 100.829 16.486C100.475 17.1447 100.297 17.9047 100.297 18.766C100.297 19.602 100.462 20.3493 100.791 21.008C101.146 21.6667 101.64 22.186 102.273 22.566C102.907 22.946 103.616 23.136 104.401 23.136ZM94.8254 35.79V9.532H100.639V14.282L99.6894 18.766L100.563 23.25V35.79H94.8254ZM117.425 28V9.532H123.239V28H117.425ZM123.239 17.854L120.807 15.954C121.288 13.8007 122.099 12.1287 123.239 10.938C124.379 9.74733 125.962 9.152 127.989 9.152C128.876 9.152 129.648 9.29133 130.307 9.57C130.991 9.82333 131.586 10.2287 132.093 10.786L128.635 15.156C128.382 14.8773 128.065 14.662 127.685 14.51C127.305 14.358 126.874 14.282 126.393 14.282C125.43 14.282 124.658 14.586 124.075 15.194C123.518 15.7767 123.239 16.6633 123.239 17.854ZM133.642 28V9.532H139.456V28H133.642ZM136.568 6.986C135.656 6.986 134.896 6.682 134.288 6.074C133.705 5.44066 133.414 4.68066 133.414 3.794C133.414 2.882 133.705 2.122 134.288 1.514C134.896 0.905999 135.656 0.601999 136.568 0.601999C137.48 0.601999 138.227 0.905999 138.81 1.514C139.393 2.122 139.684 2.882 139.684 3.794C139.684 4.68066 139.393 5.44066 138.81 6.074C138.227 6.682 137.48 6.986 136.568 6.986ZM146.172 28V1.894H151.986V28H146.172ZM141.992 14.472V9.532H156.166V14.472H141.992Z" fill="black"/>
</svg>
